<?xml version="1.0" encoding="utf-8"?>
<!-- Generator: Adobe Illustrator 19.2.1, SVG Export Plug-In . SVG Version: 6.00 Build 0)  -->
<svg version="1.1" id="Layer_1" xmlns="http://www.w3.org/2000/svg" xmlns:xlink="http://www.w3.org/1999/xlink" x="0px" y="0px"
	 viewBox="0 0 542 120" style="enable-background:new 0 0 542 120;" xml:space="preserve">
<style type="text/css">
	.st0{fill:#2F7DE1;}
</style>
<g>
	<path class="st0" d="M58.2,107.5c-26.8,0-48.6-21.8-48.6-48.6c0-26.8,21.8-48.6,48.6-48.6c26.8,0,48.6,21.8,48.6,48.6
		C106.8,85.7,85,107.5,58.2,107.5z M58.2,15.3c-24,0-43.5,19.5-43.5,43.5c0,24,19.5,43.5,43.5,43.5c24,0,43.5-19.5,43.5-43.5
		C101.7,34.9,82.2,15.3,58.2,15.3z"/>
</g>
<g>
	<g>
		<path d="M71.2,58.4c-1.2,0-2.2,1-2.2,2.2v13.8l-8.5-8.8c-0.9-0.9-1.3-1.2-2.2-1.2c-0.9,0-1.3,0.3-2.2,1.2l-8.7,8.8V60.7
			c0,0,0,0,0-0.1v-5.5h16.5c5.3,0,9.7-4.3,9.7-9.7c0-5.3-4.3-9.7-9.7-9.7H45.1c-1.2,0-2.2,1-2.2,2.2v22.7v3.2v15.9
			c0,1.2,1,2.2,2.2,2.2c0.9,0,1.3-0.3,2.2-1.2l10.8-11l10.8,11c0.9,0.9,1.3,1.2,2.2,1.2c1.2,0,2.2-1,2.2-2.2V60.7
			C73.4,59.4,72.4,58.4,71.2,58.4z M47.3,40h16.5c3.1,0,5.2,2.6,5.2,5.4c0,2.8-2.1,5.4-5.2,5.4H47.3V40z"/>
	</g>
</g>
<g>
	<g>
		<g>
			<path d="M152.2,41.1c6.2,0,11.3,5.1,11.3,11.3c0,6.2-5.1,11.3-11.3,11.3h-13.6v10.4c0,1.4-1.1,2.5-2.6,2.5
				c-1.5,0-2.6-1.1-2.6-2.6V43.7c0-1.4,1.1-2.6,2.6-2.6H152.2z M138.6,46.1v12.6h13.6c3.6,0,6.1-3,6.1-6.3c0-3.3-2.5-6.3-6.1-6.3
				H138.6z"/>
		</g>
		<g>
			<path d="M209,60.3h-23.8V74c0,1.5-1.1,2.6-2.6,2.6c-1.5,0-2.6-1.1-2.6-2.6V43.5c0-1.5,1.1-2.6,2.6-2.6c1.4,0,2.6,1.1,2.6,2.6
				v11.8H209V43.5c0-1.5,1.1-2.6,2.6-2.6c1.5,0,2.6,1.1,2.6,2.6V74c0,1.5-1.1,2.6-2.6,2.6c-1.5,0-2.6-1.1-2.6-2.6V60.3z"/>
		</g>
		<g>
			<path d="M232.8,43.5c0-1.5,1.2-2.6,2.6-2.6c1.4,0,2.6,1.1,2.6,2.6v15.2c0,7.1,5.8,13,12.9,13c7.1,0,12.9-5.8,12.9-13V43.5
				c0-1.5,1.1-2.6,2.6-2.6c1.5,0,2.6,1.1,2.6,2.6v15.2c0,10-8.1,18.1-18.1,18.1c-10,0-18.1-8.1-18.1-18.1V43.5z"/>
		</g>
		<g>
			<path d="M292.9,49.7V74c0,1.5-1.1,2.6-2.6,2.6c-1.4,0-2.6-1.1-2.6-2.6V43.5c0-1.5,1.1-2.6,2.6-2.6c1,0,1.6,0.3,2.6,1.3l25.3,25.5
				V43.5c0-1.5,1.1-2.6,2.6-2.6c1.4,0,2.6,1.1,2.6,2.6V74c0,1.5-1.1,2.6-2.6,2.6c-1,0-1.6-0.3-2.6-1.3L292.9,49.7z"/>
		</g>
		<g>
			<path d="M362,56.1c1,0,1.6,0.3,2.6,1.3l9.9,10.3V43.5c0-1.5,1.1-2.6,2.6-2.6c1.5,0,2.6,1.1,2.6,2.6V74c0,1.5-1.1,2.6-2.6,2.6
				c-1,0-1.6-0.3-2.6-1.3l-12.6-12.8l-12.6,12.8c-1,1-1.6,1.3-2.6,1.3c-1.4,0-2.6-1.1-2.6-2.6V43.5c0-1.5,1.1-2.6,2.6-2.6
				c1.4,0,2.6,1.1,2.6,2.6v24.2l10.2-10.3C360.5,56.5,361,56.1,362,56.1z"/>
		</g>
		<g>
			<path d="M398.9,75.2c-1,1-1.6,1.3-2.6,1.3c-1.4,0-2.6-1.1-2.6-2.6c0-0.7,0.3-1.3,0.8-1.9l30.7-29.8c1-1,1.5-1.3,2.6-1.3
				c1.5,0,2.6,1.1,2.6,2.6V74c0,1.5-1.1,2.6-2.6,2.6c-1.4,0-2.6-1.1-2.6-2.6v-8.2h-16.6L398.9,75.2z M425.2,49.7l-11.4,11.1h11.4
				V49.7z"/>
		</g>
		<g>
			<path d="M467.3,41.1c6.2,0,11.3,4.6,11.3,10.8c0,5.5-3.9,9.6-9.1,10.6l9.4,9.9c0.9,0.9,1.2,2.6,0.2,3.5c-1,1-3,0.7-4-0.4
				l-12.2-12.8h-9.1v11.4c0,1.4-1.1,2.5-2.6,2.5c-1.4,0-2.6-1.1-2.6-2.6V43.7c0-1.4,1.1-2.6,2.6-2.6H467.3z M453.7,46.1v11.6h13.6
				c3.6,0,6.1-2.5,6.1-5.8c0-3.3-2.5-5.8-6.1-5.8H453.7z"/>
		</g>
		<g>
			<path d="M523.8,71.4c1.5,0,2.6,1,2.6,2.5c0,1.5-1.1,2.5-2.6,2.5H499c-1.4,0-2.6-1.1-2.6-2.6v-30c0-1.4,1.1-2.6,2.6-2.6h24.9
				c1.5,0,2.6,1,2.6,2.5c0,1.4-1.1,2.5-2.6,2.5h-22.3v9.7h17.1c1.5,0,2.6,1,2.6,2.5c0,1.5-1.1,2.5-2.6,2.5h-17.1v10.6H523.8z"/>
		</g>
	</g>
</g>
</svg>
